<?xml version="1.0" standalone="no"?>
<!DOCTYPE svg PUBLIC "-//W3C//DTD SVG 20010904//EN"
 "http://www.w3.org/TR/2001/REC-SVG-20010904/DTD/svg10.dtd">
<svg version="1.0" xmlns="http://www.w3.org/2000/svg"
 width="1077.000000pt" height="1280.000000pt" viewBox="0 0 1077.000000 1280.000000"
 preserveAspectRatio="xMidYMid meet">
<g transform="translate(0.000000,1280.000000) scale(0.100000,-0.100000)"
fill="#000000" stroke="none">
<path d="M5485 11946 c-70 -17 -180 -70 -241 -116 -99 -75 -218 -294 -283
-525 -55 -194 -66 -266 -65 -452 l1 -161 -29 -6 c-22 -4 -33 -16 -49 -51 -11
-24 -19 -60 -17 -79 2 -39 3 -37 -32 -54 -14 -7 -44 -27 -66 -46 -26 -21 -58
-36 -85 -40 -114 -17 -309 -71 -364 -100 -33 -17 -85 -56 -116 -86 -68 -67
-96 -135 -111 -265 -5 -49 -21 -139 -36 -200 -25 -108 -26 -117 -25 -450 0
-187 4 -394 8 -460 l8 -120 -75 -145 c-108 -209 -126 -275 -137 -509 -4 -91
-10 -136 -18 -138 -7 -3 -23 17 -37 44 -30 59 -83 133 -95 133 -10 0 -8 -147
4 -281 5 -51 3 -149 -4 -235 -6 -82 -16 -216 -21 -299 -6 -82 -16 -179 -23
-215 -12 -72 -15 -235 -4 -247 4 -4 14 3 23 15 8 12 23 22 33 22 38 0 42 -21
32 -152 -6 -67 -13 -176 -17 -241 l-7 -119 57 -53 c51 -47 56 -55 50 -81 -4
-16 -13 -39 -21 -50 -7 -12 -23 -54 -33 -93 -21 -75 -66 -169 -153 -326 -108
-193 -666 -1125 -986 -1647 -83 -136 -187 -314 -231 -395 -79 -146 -247 -549
-235 -562 11 -10 158 149 212 229 71 106 156 253 337 580 169 303 381 681 504
895 397 689 439 761 517 865 22 30 49 67 58 83 10 15 24 27 32 27 8 0 26 22
39 49 17 33 33 51 50 55 34 8 68 55 120 168 27 57 66 119 96 153 27 32 50 64
50 71 0 6 23 28 50 48 56 40 63 66 35 133 -8 19 -15 43 -15 52 1 9 31 68 68
131 47 80 76 119 96 128 19 10 37 34 57 75 33 71 35 84 14 123 -19 37 -19 58
0 95 19 37 14 46 -31 55 -29 5 -40 2 -61 -17 -29 -28 -93 -149 -93 -178 0 -11
-4 -22 -9 -25 -4 -3 -11 -19 -14 -36 -7 -34 -72 -140 -86 -140 -11 0 -81 112
-81 129 0 6 9 11 20 11 10 0 35 8 55 17 28 13 36 24 40 52 3 20 14 76 26 125
16 67 18 90 9 96 -7 4 -10 14 -8 22 7 33 124 238 135 238 7 0 16 -8 22 -17 7
-14 18 2 58 80 48 97 48 98 28 115 -60 50 -60 52 -15 141 56 112 70 174 70
308 0 87 3 113 13 113 15 0 68 -131 91 -225 9 -33 26 -92 40 -132 13 -39 27
-96 31 -125 9 -79 -11 -306 -29 -327 -9 -10 -19 -57 -26 -121 -6 -58 -18 -136
-25 -175 -8 -38 -23 -149 -35 -245 -20 -167 -30 -217 -100 -480 -17 -64 -38
-177 -46 -254 -8 -76 -30 -209 -49 -295 -51 -235 -59 -310 -52 -526 12 -369
64 -563 219 -822 121 -201 152 -344 163 -758 4 -143 7 -282 6 -310 -1 -27 5
-104 13 -170 9 -66 20 -172 26 -236 13 -138 27 -194 67 -274 17 -33 36 -77 42
-98 7 -20 35 -61 62 -91 43 -48 49 -59 49 -99 0 -24 15 -92 34 -150 42 -130
62 -314 51 -487 -7 -113 -7 -116 -45 -165 -21 -27 -50 -76 -64 -108 -15 -35
-47 -80 -83 -116 -32 -32 -75 -80 -97 -105 -21 -25 -78 -76 -127 -112 -63 -48
-94 -78 -109 -108 -46 -97 -45 -240 3 -282 32 -28 124 -39 317 -39 247 0 322
48 375 238 11 40 28 72 56 102 45 48 60 56 179 85 103 26 186 64 202 93 16 31
38 162 38 232 0 75 -21 160 -62 245 l-31 65 -5 292 c-8 481 11 581 129 708 57
62 69 80 75 121 7 51 -15 202 -43 287 -19 60 -7 78 29 43 29 -29 43 -72 56
-173 8 -60 6 -99 -13 -227 -20 -142 -25 -158 -54 -194 -98 -124 -94 -196 20
-462 60 -141 62 -148 66 -250 4 -87 0 -125 -21 -223 -14 -65 -26 -142 -26
-171 0 -113 55 -245 124 -300 22 -17 51 -43 66 -58 38 -37 89 -47 207 -40
l102 7 41 40 c108 104 166 298 118 390 -9 17 -32 98 -52 180 -20 83 -46 184
-57 225 -16 54 -21 95 -18 145 9 171 3 302 -15 362 l-18 61 31 90 c17 50 31
99 31 109 0 36 47 153 72 181 108 118 199 283 213 387 4 28 26 104 48 170 42
120 42 121 42 265 0 141 -2 148 -38 254 -52 152 -51 164 33 337 135 275 176
477 196 949 7 175 -2 271 -46 489 -44 212 -42 219 44 153 71 -54 88 -62 116
-57 14 2 81 9 150 15 144 12 173 21 190 58 6 15 16 96 21 182 9 156 15 231 26
284 5 27 7 28 47 24 39 -5 42 -3 59 32 9 20 17 57 17 83 0 26 20 142 44 259
24 117 56 285 70 373 15 88 36 194 47 235 11 41 27 111 34 155 8 44 26 109 40
144 14 36 24 66 22 67 -2 2 -40 -22 -86 -54 -94 -65 -95 -65 -104 36 -5 50 -2
86 13 142 30 116 26 204 -15 351 -67 231 -67 261 -9 488 19 73 34 156 34 183
0 64 -22 149 -67 257 -32 77 -37 99 -43 212 -8 142 -14 159 -105 314 -95 160
-235 284 -495 438 -52 30 -110 68 -128 84 l-32 28 30 94 c17 52 30 103 28 115
-2 13 -20 30 -48 45 -38 21 -62 26 -166 31 -142 6 -157 14 -148 70 6 38 6 38
-33 45 -32 5 -49 1 -89 -20 -27 -14 -60 -25 -74 -23 -22 3 -26 9 -32 58 -4 30
-12 174 -18 320 -12 272 -29 401 -66 472 -50 98 -145 248 -187 294 -105 116
-298 170 -462 130z m1348 -3479 c18 -34 64 -111 100 -172 39 -64 67 -121 67
-137 0 -15 -14 -68 -31 -119 -40 -119 -46 -202 -25 -363 l17 -129 -25 -26
c-34 -35 -41 -75 -26 -159 9 -54 15 -69 28 -68 13 1 22 -31 48 -169 40 -204
41 -221 14 -228 -17 -4 -20 -14 -20 -64 0 -32 -5 -64 -12 -71 -6 -6 -11 -30
-10 -52 2 -37 -4 -49 -51 -102 -105 -124 -140 -159 -149 -150 -21 21 -82 306
-98 462 -6 58 -22 137 -34 175 -13 39 -26 106 -30 150 -3 46 -14 94 -25 115
-14 27 -20 69 -25 176 -9 162 0 228 45 336 41 99 109 333 109 375 0 27 48 207
75 281 8 21 21 6 58 -61z m161 -2198 c47 -41 76 -85 76 -113 0 -9 -23 -27 -51
-41 -65 -34 -79 -24 -79 53 0 46 -4 61 -25 82 -30 31 -25 60 10 60 12 0 43
-19 69 -41z m-1346 -242 c2 -55 0 -67 -13 -67 -8 0 -15 2 -15 4 0 2 -5 27 -10
56 -7 38 -7 57 1 67 22 26 34 7 37 -60z m5 -1083 c14 -162 35 -299 71 -455 19
-85 46 -210 60 -279 14 -69 27 -134 31 -145 4 -14 -11 -47 -53 -110 -76 -118
-121 -226 -135 -331 -6 -46 -14 -84 -17 -84 -34 0 -161 245 -186 356 -37 168
-3 436 97 759 27 88 58 203 69 255 27 124 30 132 43 127 7 -2 15 -40 20 -93z"/>
</g>
</svg>
